<?xml version="1.0" standalone="no"?>
<!DOCTYPE svg PUBLIC "-//W3C//DTD SVG 20010904//EN"
 "http://www.w3.org/TR/2001/REC-SVG-20010904/DTD/svg10.dtd">
<svg version="1.0" xmlns="http://www.w3.org/2000/svg"
 width="951.000000pt" height="1280.000000pt" viewBox="0 0 951.000000 1280.000000"
 preserveAspectRatio="xMidYMid meet">
<metadata>
Created by potrace 1.15, written by Peter Selinger 2001-2017
</metadata>
<g transform="translate(0.000000,1280.000000) scale(0.100000,-0.100000)"
fill="#000000" stroke="none">
<path d="M5046 12789 c-260 -30 -538 -124 -786 -267 -181 -104 -316 -208 -489
-377 -374 -364 -706 -835 -992 -1405 -112 -224 -223 -481 -300 -692 -30 -81
-56 -148 -59 -148 -3 0 -13 27 -24 60 -79 253 -292 524 -536 680 -56 36 -128
89 -162 117 -112 98 -238 135 -332 99 -69 -27 -69 -26 -51 -188 18 -166 21
-510 5 -650 -31 -262 -97 -494 -201 -700 -17 -35 -65 -114 -107 -176 -87 -132
-230 -429 -350 -727 -462 -1151 -684 -2501 -658 -4000 11 -639 27 -818 106
-1140 256 -1046 959 -1980 1914 -2540 109 -64 461 -237 626 -307 496 -213
1005 -343 1585 -404 227 -25 768 -25 990 -1 632 69 1140 212 1655 468 703 349
1291 853 1759 1507 611 855 931 1942 861 2927 -20 275 -57 501 -141 845 -121
501 -253 872 -637 1795 -333 800 -414 1007 -529 1355 -118 356 -115 340 -123
700 -9 378 -16 420 -73 461 -30 22 -51 29 -87 29 -85 0 -136 -36 -321 -224
-92 -94 -190 -198 -218 -232 -122 -147 -261 -389 -332 -577 l-33 -88 -86 168
c-203 398 -375 637 -1006 1408 -375 458 -436 547 -524 763 -112 275 -156 549
-130 812 21 218 91 439 189 594 l41 66 -187 -1 c-104 -1 -219 -5 -257 -10z"/>
</g>
</svg>
